<!-- Generator: Adobe Illustrator 16.0.0, SVG Export Plug-In . SVG Version: 6.00 Build 0)  -->
<svg xmlns:rdf="http://www.w3.org/1999/02/22-rdf-syntax-ns#" xmlns="http://www.w3.org/2000/svg" enable-background="new 0 0 595.28 841.89" xml:space="preserve" height="132.51" viewBox="0 0 515.92698 132.51249" width="515.93" version="1.1" y="0px" x="0px" xmlns:cc="http://creativecommons.org/ns#" xmlns:dc="http://purl.org/dc/elements/1.1/"><metadata><rdf:RDF><cc:Work rdf:about=""><dc:format>image/svg+xml</dc:format><dc:type rdf:resource="http://purl.org/dc/dcmitype/StillImage"/><dc:title/></cc:Work></rdf:RDF></metadata><g transform="translate(-39.678009,-286.1195)"><path d="m500.17,298.95c-3.933-7.968-11.454-10.116-16.24-10.137-1.955-0.006-7.824,0-7.824,0l-37.151,78.664v-78.638h-26.902l-36.942,81.105-35.376-81.121h-27.858v105.91h-66.199v-35.027h59.099v-19.91h-59.09v-30.409h59.884v-20.405h-84.107v78.471s-27.153-57.509-32.158-68.116c-5.003-10.608-16.604-10.52-16.604-10.52h-7.668l-36.91,78.17s-4.834-14.505-29.507-23.173c-24.673-8.669-31.542-13.537-29.074-24.606,2.467-11.069,25.005-15.872,40.943-0.601,11.203-11.203,4.262-27.434-8.602-30.764-19.133-4.951-47.967,0.311-55.926,22.228-8.193,22.566,1.222,42.256,37.254,53.969,11.114,3.645,21.961,8.535,21.961,17.071,0,8.535-0.022,35.121-0.022,35.121h15.136c11.648,0,16.571-10.569,16.571-10.569l7.07-14.869h61.749l11.771,25.438h100.43c11.319,0,18.271-8.973,18.271-18.271v-67.353l38.494,86.174,40.125-85.557v85.006h16.973c6.175,0,12.656-3.033,16.305-10.785,3.649-7.751,6.917-14.672,6.917-14.672h61.734l11.835,25.457h27.074c-0.002,0.002-50.534-107.33-55.439-117.27zm-346.88,71.245,21.506-45.813,21.171,45.813h-42.677zm311.01,0,21.506-45.813,21.173,45.813h-42.679z"/><path fill="#e30613" d="m99.999,391.68c-3.074,2.309-7.271,3.703-11.902,3.703-11.467,0-20.706-3.183-30.898-11.626l-17.521,17.68c15.293,12.266,27.554,17.2,49.534,17.2,3.78,0,7.386-0.403,10.787-1.151v-25.806z"/></g></svg>
